# xmcd
#
# Track frame offsets: 
#        150
#        15261
#        41427
#        66773
#        86515
#        110379
#        132554
#        150936
#        170877
#        189193
#        209763
#        238299
#        264492
#        282936
#        297589
#        333119
#        351014
#
# Disc length: 4780 seconds
#
# Revision: 1
# Processed by: cddbd v1.5.2PL0 Copyright (c) Steve Scherf et al.
# Submitted via: ExactAudioCopy v1.3
#
DISCID=f812aa11
DTITLE=Various Artist - Akella Presents - vol.163 - Various Styles Of
DTITLE=Blues  CD1
DYEAR=2018
DGENRE=Blues
TTITLE0=Reverend Rusty and The Case - Rough Times
TTITLE1=Richie Arndt - At The End Of The Day
TTITLE2=Mark Knopfler - Good On You Son
TTITLE3=Gurf Morlix - Greatest Show On Earth
TTITLE4=Sari Schorr - Ready For Love
TTITLE5=Russ Green - Love To Give
TTITLE6=Rosedale - Racing At The Wheel
TTITLE7=Jim Allchin - Up To Destiny
TTITLE8=Brian Ames With David Danced Collective - Heaven Jam
TTITLE9=David Lumsden - Georgia On My Mind
TTITLE10=Tota Blues - Lovin' You Is Killin' Me
TTITLE11=Kent Earl Housman - Wham Bam Man
TTITLE12=Jon C. Butler - That's Why I Play The Blues
TTITLE13=Righteous Continental - Psychoactive
TTITLE14=Tom Killner - So Long
TTITLE15=Fantastic Negrito - Bad Guy Necessity
TTITLE16=Karen Lawrence - Grinnin' In Your Face
EXTD=
EXTT0=
EXTT1=
EXTT2=
EXTT3=
EXTT4=
EXTT5=
EXTT6=
EXTT7=
EXTT8=
EXTT9=
EXTT10=
EXTT11=
EXTT12=
EXTT13=
EXTT14=
EXTT15=
EXTT16=
PLAYORDER=
